HIERARCHY
ROOT hip
{
  OFFSET 0 0 0
  CHANNELS 6 Xposition Yposition Zposition Zrotation Yrotation Xrotation
  JOINT abdomen
  {
    OFFSET 0 20.6881 -0.73152
    CHANNELS 3 Zrotation Xrotation Yrotation
    JOINT chest
    {
      OFFSET 0 11.7043 -0.48768
      CHANNELS 3 Zrotation Xrotation Yrotation
      JOINT neck
      {
        OFFSET 0 22.1894 -2.19456
        CHANNELS 3 Zrotation Xrotation Yrotation
        JOINT head
        {
          OFFSET -0.24384 7.07133 1.2192
          CHANNELS 3 Zrotation Xrotation Yrotation
          JOINT leftEye
          {
            OFFSET 4.14528 8.04674 8.04672
            CHANNELS 3 Zrotation Xrotation Yrotation
            End Site
            {
              OFFSET 1 0 0
            }
          }
          JOINT rightEye
          {
            OFFSET -3.6576 8.04674 8.04672
            CHANNELS 3 Zrotation Xrotation Yrotation
            End Site
            {
              OFFSET 1 0 0
            }
          }
        }
      }
      JOINT rCollar
      {
        OFFSET -2.68224 19.2634 -4.8768
        CHANNELS 3 Zrotation Xrotation Yrotation
        JOINT rShldr
        {
          OFFSET -8.77824 -1.95073 1.46304
          CHANNELS 3 Zrotation Xrotation Yrotation
          JOINT rForeArm
          {
            OFFSET -28.1742 -1.7115 0.48768
            CHANNELS 3 Zrotation Xrotation Yrotation
            JOINT rHand
            {
              OFFSET -22.5879 0.773209 7.07136
              CHANNELS 3 Zrotation Xrotation Yrotation
              JOINT rThumb1
              {
                OFFSET -1.2192 -0.487915 3.41376
                CHANNELS 3 Zrotation Xrotation Yrotation
                JOINT rThumb2
                {
                  OFFSET -3.37035 -0.52449 3.41376
                  CHANNELS 3 Zrotation Xrotation Yrotation
                  End Site
                  {
                    OFFSET -1.78271 -1.18214 1.43049
                  }
                }
              }
              JOINT rIndex1
              {
                OFFSET -7.75947 0.938293 5.60832
                CHANNELS 3 Zrotation Xrotation Yrotation
                JOINT rIndex2
                {
                  OFFSET -2.54057 -0.884171 1.56538
                  CHANNELS 3 Zrotation Xrotation Yrotation
                  End Site
                  {
                    OFFSET -1.62519 -0.234802 1.16502
                  }
                }
              }
              JOINT rMid1
              {
                OFFSET -8.24714 1.18213 3.41376
                CHANNELS 3 Zrotation Xrotation Yrotation
                JOINT rMid2
                {
                  OFFSET -3.10165 -0.590103 1.0647
                  CHANNELS 3 Zrotation Xrotation Yrotation
                  End Site
                  {
                    OFFSET -2.48547 -0.328903 0.83742
                  }
                }
              }
              JOINT rRing1
              {
                OFFSET -8.82822 0.546677 1.51678
                CHANNELS 3 Zrotation Xrotation Yrotation
                JOINT rRing2
                {
                  OFFSET -2.60934 -0.819778 -0.0198488
                  CHANNELS 3 Zrotation Xrotation Yrotation
                  End Site
                  {
                    OFFSET -2.33842 -0.294052 0.168128
                  }
                }
              }
              JOINT rPinky1
              {
                OFFSET -8.27202 -0.0477905 -0.4584
                CHANNELS 3 Zrotation Xrotation Yrotation
                JOINT rPinky2
                {
                  OFFSET -1.82734 -0.647385 -0.700984
                  CHANNELS 3 Zrotation Xrotation Yrotation
                  End Site
                  {
                    OFFSET -1.69225 -0.51767 -0.607171
                  }
                }
              }
            }
          }
        }
      }
      JOINT lCollar
      {
        OFFSET 2.68224 19.2634 -4.8768
        CHANNELS 3 Zrotation Xrotation Yrotation
        JOINT lShldr
        {
          OFFSET 8.77824 -1.95073 1.46304
          CHANNELS 3 Zrotation Xrotation Yrotation
          JOINT lForeArm
          {
            OFFSET 28.1742 -1.7115 0.48768
            CHANNELS 3 Zrotation Xrotation Yrotation
            JOINT lHand
            {
              OFFSET 22.5879 0.773209 7.07136
              CHANNELS 3 Zrotation Xrotation Yrotation
              JOINT lThumb1
              {
                OFFSET 1.2192 -0.487915 3.41376
                CHANNELS 3 Zrotation Xrotation Yrotation
                JOINT lThumb2
                {
                  OFFSET 3.37035 -0.52449 3.41376
                  CHANNELS 3 Zrotation Xrotation Yrotation
                  End Site
                  {
                    OFFSET 1.78271 -1.18214 1.43049
                  }
                }
              }
              JOINT lIndex1
              {
                OFFSET 7.75947 0.938293 5.60832
                CHANNELS 3 Zrotation Xrotation Yrotation
                JOINT lIndex2
                {
                  OFFSET 2.54057 -0.884171 1.56538
                  CHANNELS 3 Zrotation Xrotation Yrotation
                  End Site
                  {
                    OFFSET 1.62519 -0.234802 1.16502
                  }
                }
              }
              JOINT lMid1
              {
                OFFSET 8.24714 1.18213 3.41376
                CHANNELS 3 Zrotation Xrotation Yrotation
                JOINT lMid2
                {
                  OFFSET 3.10165 -0.590103 1.0647
                  CHANNELS 3 Zrotation Xrotation Yrotation
                  End Site
                  {
                    OFFSET 2.48547 -0.328903 0.83742
                  }
                }
              }
              JOINT lRing1
              {
                OFFSET 8.82822 0.546677 1.51678
                CHANNELS 3 Zrotation Xrotation Yrotation
                JOINT lRing2
                {
                  OFFSET 2.60934 -0.819778 -0.0198488
                  CHANNELS 3 Zrotation Xrotation Yrotation
                  End Site
                  {
                    OFFSET 2.33842 -0.294052 0.168128
                  }
                }
              }
              JOINT lPinky1
              {
                OFFSET 8.27202 -0.0477905 -0.4584
                CHANNELS 3 Zrotation Xrotation Yrotation
                JOINT lPinky2
                {
                  OFFSET 1.82734 -0.647385 -0.700984
                  CHANNELS 3 Zrotation Xrotation Yrotation
                  End Site
                  {
                    OFFSET 1.69225 -0.51767 -0.607171
                  }
                }
              }
            }
          }
        }
      }
    }
  }
  JOINT rButtock
  {
    OFFSET -8.77824 4.35084 1.2192
    CHANNELS 3 Zrotation Xrotation Yrotation
    JOINT rThigh
    {
      OFFSET 0 -1.70687 -2.19456
      CHANNELS 3 Zrotation Xrotation Yrotation
      JOINT rShin
      {
        OFFSET 0 -36.8199 0.73152
        CHANNELS 3 Zrotation Xrotation Yrotation
        JOINT rFoot
        {
          OFFSET 0.73152 -45.1104 -5.12064
          CHANNELS 3 Zrotation Xrotation Yrotation
          End Site
          {
            OFFSET -1.1221 -3.69964 12.103
          }
        }
      }
    }
  }
  JOINT lButtock
  {
    OFFSET 8.77824 4.35084 1.2192
    CHANNELS 3 Zrotation Xrotation Yrotation
    JOINT lThigh
    {
      OFFSET 0 -1.70687 -2.19456
      CHANNELS 3 Zrotation Xrotation Yrotation
      JOINT lShin
      {
        OFFSET 0 -36.8199 0.73152
        CHANNELS 3 Zrotation Xrotation Yrotation
        JOINT lFoot
        {
          OFFSET -0.73152 -45.1104 -5.12064
          CHANNELS 3 Zrotation Xrotation Yrotation
          End Site
          {
            OFFSET 1.1221 -3.69964 12.103
          }
        }
      }
    }
  }
}
MOTION
Frames:	5
Frame Time:	0.03333
0.0 0.0 0.0 0.0 0.0 0.0 0.0 0.0 0.0 0.0 0.0 0.0 0.0 0.0 0.0 0.0 0.0 0.0 0.0 0.0 0.0 0.0 0.0 0.0 0.0 0.0 0.0 0.0 0.0 0.0 0.0 0.0 0.0 0.0 0.0 0.0 0.0 0.0 0.0 0.0 0.0 0.0 0.0 0.0 0.0 0.0 0.0 0.0 0.0 0.0 0.0 0.0 0.0 0.0 0.0 0.0 0.0 0.0 0.0 0.0 0.0 0.0 0.0 0.0 0.0 0.0 0.0 0.0 0.0 0.0 0.0 0.0 0.0 0.0 0.0 0.0 0.0 0.0 0.0 0.0 0.0 0.0 0.0 0.0 0.0 0.0 0.0 0.0 0.0 0.0 0.0 0.0 0.0 0.0 0.0 0.0 0.0 0.0 0.0 0.0 0.0 0.0 0.0 0.0 0.0 0.0 0.0 0.0 0.0 0.0 0.0 0.0 0.0 0.0 0.0 0.0 0.0 0.0 0.0 0.0 0.0 0.0 0.0 0.0 0.0 0.0 0.0 0.0 0.0 0.0 0.0 0.0
0.5641 63.9884 0.1878 1.434645 -7.438636 -0.4116 -1.222719 3.519421 0.0 -4.889789 -13.506163 156.825052 20.487587 -9.481862 95.877861 -29.08778 -14.448532 -37.67855 -146.331109 -6.632497 -21.682252 -35.910745 -23.148563 64.585173 -9.267697 54.217904 89.860365 19.565431 1.304019 8.215062 -95.018941 -86.376435 12.7139 74.089879 -12.389216 -64.214184 -162.897314 68.898097 42.652708 -160.076749 -12.857849 -137.165989 -173.272118 78.320208 23.637056 150.343983 47.476936 -85.211876 19.221138 7.701329 94.25702 155.486383 -14.130508 -117.980543 29.939455 -9.688025 -67.193469 58.091793 -25.35661 105.206127 -105.148858 -33.399675 -63.546044 -127.942153 27.545801 -128.937854 -82.929499 -16.261002 -2.082469 -7.347233 -12.269367 -4.72478 -20.364954 -4.007968 -175.198334 -163.543745 -61.217349 -47.412114 -8.841924 -29.566316 -56.223963 -2.853852 -64.149641 42.711091 121.75093 -5.358664 112.898303 0.172587 7.504653 -178.702267 1.195135 39.789059 100.719205 -153.893171 -46.117885 132.768801 -56.475998 -30.630851 -35.927393 72.502532 19.878701 56.945675 59.454537 10.710391 56.531847 133.842365 4.150851 124.402496 -44.346588 4.161049 -84.055671 9.718201 40.978606 165.363765 -2.674948 4.132695 -138.416003 45.598994 -52.511547 -124.01047 4.359391 -38.424414 -0.0 -10.05788 37.797139 -163.859135 5.228196 -1.426168 72.27826 67.764415 7.460483 -110.383851
-0.5852999999999999 65.75189999999999 1.1694 177.899133 55.778331 178.058181 -3.788848 7.434317 -180.0 -2.245727 -4.192509 -179.036111 4.967219 10.10915 105.141784 -42.465101 17.953365 -112.977958 -148.682148 -10.009827 -34.69947 -157.089315 13.535101 60.70732 13.379555 -32.392203 -3.813095 -125.021916 6.368285 -169.595295 -100.371051 -18.715971 -88.399914 31.114062 -30.922833 16.048867 9.901698 -39.246873 32.26451 -68.346109 77.031463 64.129255 28.698859 -17.802466 91.895684 -89.162819 5.60509 -113.494876 -10.6007 -30.500762 20.08995 -99.511958 -18.250805 -136.696846 88.902416 74.675282 -121.275905 116.497861 52.304823 105.57078 -157.169543 61.138286 -124.21535 -147.332297 52.799375 -71.55688 128.039118 12.267439 -142.422187 64.783333 42.114939 -40.105077 178.996369 31.928255 113.527734 6.211378 4.134947 15.973675 1.87141 -15.23331 -10.365075 -140.993744 16.960092 130.120524 155.926381 12.971269 -85.529766 84.694297 10.985322 -47.959248 153.336794 30.220985 -34.8628 174.357555 0.492607 -55.393599 75.278944 34.373843 -98.555856 -26.056197 -79.80317 106.156017 -12.195517 -15.811124 -22.126583 -154.853244 -13.309301 127.525713 60.998303 -5.938464 29.559649 -79.613498 1.653163 -83.058872 -44.428921 18.670652 -54.842839 121.141005 -20.060006 -117.05928 19.913092 -30.426562 14.27717 1.353027 20.202599 -0.442101 -6.582343 30.148728 18.205855 30.411398 10.380675 -11.070644
-1.9102999999999999 59.8222 2.4982 170.762568 51.231411 172.174175 -17.523242 18.66828 5.06055 11.635911 -6.649135 -0.984408 -12.550314 22.187425 -41.57383 34.314437 -26.061114 16.403379 95.934382 11.794176 -13.073069 -57.658343 -0.821457 1.492366 -160.64187 -15.045182 170.711204 157.635072 -15.796614 -169.140541 -117.306097 41.192426 49.82872 119.034041 -59.800411 103.09829 -116.071626 33.409662 39.648503 22.68498 -27.629083 45.318803 -5.584013 -39.901837 29.408506 4.040572 -38.590579 -80.557647 -167.219894 29.846201 147.188743 -171.316614 -6.826525 114.944374 -27.504208 -2.163372 1.877358 56.98001 27.708712 59.93277 -50.002351 -41.264622 -88.64061 -62.596761 -15.356489 135.314408 121.476405 47.914347 -123.286183 -60.54921 -39.358781 -92.014245 142.65719 42.170726 -68.585251 -176.6216 -19.574801 -140.513698 175.699978 -3.110321 -86.12473 -177.490588 -1.388647 -50.137092 151.206798 -7.354266 -83.504753 67.130998 9.902338 -63.86206 -12.680319 25.973872 27.426914 1.618824 -16.997653 -44.310642 -15.528308 -61.653667 -16.317155 -115.739237 16.354052 172.779878 13.175064 77.16759 -70.402833 -147.351276 14.975386 66.108746 8.824148 31.037345 -14.391653 -92.504398 -69.745164 -92.349711 -0.789073 66.634362 90.007239 -152.655447 11.878157 92.362932 154.422557 75.03432 20.915942 -129.423681 56.266577 -0.0 27.860058 44.21021 -67.602229 -171.737395 -31.177164 -52.397641
-3.1008999999999998 60.5287 3.5166000000000004 168.994131 49.454615 171.557 -20.204505 13.209888 94.78781 -1.003285 -12.264432 -92.940592 -2.607339 22.051041 -53.152653 35.659267 -27.171737 22.760357 21.238294 9.912238 49.642335 -49.732356 0.331188 -0.714581 -157.86075 -3.320071 166.711317 -40.208322 20.055308 1.892348 114.440881 38.954341 -84.514825 -85.339448 77.375368 69.294027 -16.16908 -20.654692 -0.704491 -106.616621 -53.693276 154.073241 11.599905 -49.726246 6.443644 -6.362513 74.065696 -8.834643 -6.110404 -23.608155 -28.299603 12.665241 3.309431 0.79255 -48.196755 -81.548487 -74.346736 -152.395384 -37.862932 -144.728086 -115.059811 22.383884 -123.566526 -169.829541 46.119325 -51.496606 146.201479 37.119827 -142.438051 46.612761 -18.180425 -36.929216 38.685784 13.16793 56.984592 -164.000667 -44.944553 -137.831051 84.193046 31.728446 -53.769507 123.875242 -6.853206 -82.909003 4.80738 9.607245 -35.320695 9.643624 75.627625 5.482327 -100.99823 87.56956 92.366875 -172.881039 -41.640815 -177.513032 124.901372 47.85827 -131.394906 -44.009399 9.419033 -20.628198 -20.948227 5.84412 -2.127779 -143.822117 68.48716 170.138194 -67.170046 38.153681 -17.598351 93.590903 -63.732301 -86.779082 -74.463325 -34.358428 -87.126964 89.731479 22.527628 -175.12561 -107.466758 60.608454 -37.501474 131.774679 60.419798 -61.322963 -61.509418 -2.025415 -124.008205 -53.865696 -26.758854 -141.39531
